# xmcd
#
# Track frame offsets:
#	150
#	16109
#	32725
#	57450
#	83265
#	99827
#	117139
#	120403
#	135730
#	151060
#	177209
#	191170
#	208511
#	229494
#	269461
#
# Disc length: 4002 seconds
#
# Revision: 1
# Processed by: cddbd v1.5.2PL0 Copyright (c) Steve Scherf et al.
# Submitted via: audiograbber 1.83.01
#
DISCID=bb0fa00f
DTITLE=NRPS - 73-03-18 Felt Forum, Madison Square Garden, New York NY
DYEAR=1900
DGENRE=
TTITLE0=Suttler's Mill
TTITLE1=California Day
TTITLE2=Sweet Loving One
TTITLE3=Connection
TTITLE4=Whiskey
TTITLE5=DJ Conversation and Tuning
TTITLE6=Bob Weir comment to crowd
TTITLE7=Cold Jordan
TTITLE8=I Hear A Voice Calling
TTITLE9=Swing Low Sweet Chariot
TTITLE10=Groupie
TTITLE11=She's No Angel
TTITLE12=You Should Have Seen Me Running
TTITLE13=I Don't Need No Doctor
TTITLE14=Portland Woman
EXTD=
EXTT0=
EXTT1=
EXTT2=
EXTT3=
EXTT4=
EXTT5=
EXTT6=
EXTT7=
EXTT8=
EXTT9=
EXTT10=
EXTT11=
EXTT12=
EXTT13=
EXTT14=
PLAYORDER=
